<svg xmlns="http://www.w3.org/2000/svg" width="500" zoomAndPan="magnify" viewBox="0 0 375 374.999991" height="500"
     preserveAspectRatio="xMidYMid meet" version="1.0"><defs><g/><clipPath id="f7c5580e64"><path d="M 82.96875 66.054688 L 153 66.054688 L 153 136 L 82.96875 136 Z M 82.96875 66.054688 " clip-rule="nonzero"/></clipPath><clipPath id="279ddcaaf7"><path d="M 222 66.054688 L 292.21875 66.054688 L 292.21875 136 L 222 136 Z M 222 66.054688 " clip-rule="nonzero"/></clipPath><clipPath id="38352e40ce"><path d="M 222 205 L 292.21875 205 L 292.21875 275.304688 L 222 275.304688 Z M 222 205 " clip-rule="nonzero"/></clipPath><clipPath id="ae42dc34fe"><path d="M 82.96875 205 L 153 205 L 153 275.304688 L 82.96875 275.304688 Z M 82.96875 205 " clip-rule="nonzero"/></clipPath></defs><rect x="-37.5" width="450" fill="#ffffff" y="-37.499999" height="449.999989" fill-opacity="1"/><rect x="-37.5" width="450" fill="#ffffff" y="-37.499999" height="449.999989" fill-opacity="1"/><rect x="-37.5" width="450" fill="#ffeeee" y="-37.499999" height="449.999989" fill-opacity="1"/><g clip-path="url(#f7c5580e64)"><path fill="#ab3d3d" d="M 82.96875 135.804688 L 91.6875 135.804688 L 91.6875 74.773438 L 152.71875 74.773438 L 152.71875 66.054688 L 82.96875 66.054688 Z M 82.96875 135.804688 " fill-opacity="1" fill-rule="nonzero"/></g><g clip-path="url(#279ddcaaf7)"><path fill="#ab3d3d" d="M 222.46875 74.773438 L 283.5 74.773438 L 283.5 135.804688 L 292.21875 135.804688 L 292.21875 66.054688 L 222.46875 66.054688 Z M 222.46875 74.773438 " fill-opacity="1" fill-rule="nonzero"/></g><g clip-path="url(#38352e40ce)"><path fill="#ab3d3d" d="M 283.5 266.585938 L 222.46875 266.585938 L 222.46875 275.304688 L 292.21875 275.304688 L 292.21875 205.554688 L 283.5 205.554688 Z M 283.5 266.585938 " fill-opacity="1" fill-rule="nonzero"/></g><g clip-path="url(#ae42dc34fe)"><path fill="#ab3d3d" d="M 82.96875 275.304688 L 152.71875 275.304688 L 152.71875 266.585938 L 91.6875 266.585938 L 91.6875 205.554688 L 82.96875 205.554688 Z M 82.96875 275.304688 " fill-opacity="1" fill-rule="nonzero"/></g><g fill="#ab3d3d" fill-opacity="1"><g transform="translate(108.156472, 196.833949)"><g><path d="M 21.734375 33.277344 C 22.046875 33.382812 22.464844 33.382812 22.878906 33.382812 C 32.445312 33.382812 49.398438 9.464844 53.246094 2.289062 C 54.492188 0 54.703125 -0.207031 58.550781 -2.703125 C 62.710938 -5.40625 74.980469 -12.792969 79.453125 -12.792969 C 81.949219 -12.6875 83.09375 -15.597656 81.21875 -17.160156 C 80.699219 -17.574219 80.285156 -17.78125 79.660156 -17.78125 C 79.453125 -17.78125 79.140625 -17.78125 78.722656 -17.679688 C 76.019531 -17.367188 69.363281 -14.457031 62.085938 -10.296875 C 60.003906 -9.152344 58.238281 -8.214844 58.132812 -8.214844 C 58.132812 -8.320312 58.339844 -9.253906 58.757812 -10.398438 C 61.355469 -18.613281 60.734375 -25.789062 57.300781 -29.117188 C 55.535156 -30.886719 53.140625 -31.71875 50.230469 -31.71875 C 39.308594 -31.71875 23.917969 -19.96875 15.496094 -13.519531 C 12.0625 -10.816406 9.046875 -8.527344 8.945312 -8.527344 C 8.113281 -8.214844 10.085938 -15.289062 12.480469 -21.320312 C 17.160156 -33.175781 24.75 -46.695312 32.65625 -56.988281 C 35.046875 -60.109375 44.613281 -70.925781 49.085938 -70.925781 C 49.605469 -70.925781 50.023438 -70.820312 50.332031 -70.507812 C 51.0625 -69.882812 51.894531 -66.453125 52.207031 -62.8125 C 52.308594 -61.566406 52.515625 -59.902344 52.726562 -59.171875 C 53.039062 -57.925781 53.871094 -57.300781 54.804688 -57.300781 C 55.324219 -57.300781 55.84375 -57.507812 56.261719 -57.925781 C 56.78125 -58.550781 56.78125 -58.964844 56.367188 -63.019531 C 55.742188 -70.507812 54.703125 -73.316406 52.101562 -74.667969 C 51.164062 -75.085938 50.230469 -75.394531 49.085938 -75.394531 C 43.261719 -75.394531 35.046875 -68.429688 25.6875 -55.429688 C 16.121094 -42.015625 6.65625 -22.359375 4.367188 -11.335938 C 3.535156 -7.070312 3.847656 -4.886719 5.617188 -3.742188 C 6.238281 -3.328125 6.863281 -3.121094 7.589844 -3.121094 C 9.464844 -3.121094 11.960938 -4.886719 18.304688 -9.777344 C 31.511719 -20.070312 41.183594 -25.582031 48.046875 -26.832031 C 48.878906 -27.039062 49.710938 -27.039062 50.332031 -27.039062 C 51.894531 -27.039062 52.933594 -26.621094 53.871094 -25.6875 C 56.367188 -23.292969 56.367188 -17.886719 53.765625 -10.296875 C 51.582031 -3.953125 51.476562 -3.742188 46.171875 0.207031 C 33.796875 9.464844 23.292969 20.175781 20.175781 26.519531 C 18.511719 29.742188 19.238281 32.65625 21.734375 33.277344 Z M 26.933594 26.726562 C 25.789062 27.558594 25.0625 27.976562 24.855469 27.976562 C 24.4375 27.976562 25.269531 26.832031 27.351562 24.125 C 30.886719 19.550781 38.375 12.269531 44.199219 7.589844 C 45.03125 6.96875 42.949219 9.878906 39.519531 14.144531 C 36.191406 18.304688 29.429688 25.167969 26.933594 26.726562 Z M 26.933594 26.726562 "/></g></g></g><g fill="#ab3d3d" fill-opacity="1"><g transform="translate(187.91841, 196.833949)"><g><path d="M 22.464844 33.695312 C 22.878906 34.109375 23.503906 34.316406 24.023438 34.316406 C 24.4375 34.316406 24.75 34.214844 24.957031 34.109375 C 26 33.382812 26.101562 32.445312 25.789062 25.375 C 25.582031 21.632812 25.375 10.816406 25.375 1.457031 C 25.375 -15.390625 25.375 -15.496094 26.101562 -15.496094 C 27.765625 -15.496094 30.160156 -13.414062 31.40625 -10.816406 C 32.550781 -8.632812 33.277344 -6.34375 35.253906 1.039062 C 38.0625 11.4375 40.039062 16.121094 43.261719 19.550781 C 45.652344 22.046875 47.316406 22.878906 50.75 22.878906 C 53.765625 22.773438 55.742188 21.734375 58.859375 18.71875 C 62.085938 15.703125 64.164062 12.6875 68.742188 4.886719 C 72.589844 -1.664062 78.621094 -11.023438 80.492188 -13.414062 C 82.15625 -15.390625 81.949219 -17.367188 79.972656 -17.992188 C 79.765625 -17.992188 79.660156 -18.09375 79.453125 -18.09375 C 78.101562 -18.09375 76.851562 -16.429688 72.796875 -10.398438 C 70.300781 -6.65625 66.660156 -0.832031 64.683594 2.601562 C 60.421875 9.878906 58.757812 12.269531 56.261719 14.976562 C 54.078125 17.160156 52.101562 18.304688 50.230469 18.304688 C 48.667969 18.304688 47.214844 17.367188 45.964844 15.597656 C 43.574219 12.269531 42.015625 8.214844 39.519531 -1.457031 C 36.917969 -10.917969 35.566406 -14.039062 32.550781 -17.160156 L 31.09375 -18.71875 L 34.007812 -20.800781 C 37.957031 -23.503906 44.925781 -29.949219 48.773438 -34.421875 C 62.5 -49.8125 66.867188 -60.523438 61.667969 -65.515625 C 60.109375 -67.078125 57.820312 -67.804688 55.117188 -67.804688 C 46.695312 -67.804688 35.460938 -60.628906 29.117188 -55.535156 C 27.664062 -54.285156 26.414062 -53.347656 26.414062 -53.558594 C 26.414062 -53.660156 26.621094 -56.46875 26.933594 -59.796875 C 27.144531 -63.125 27.453125 -65.933594 27.453125 -66.035156 C 27.453125 -66.246094 27.871094 -66.558594 28.390625 -66.660156 C 29.535156 -67.078125 29.949219 -68.117188 29.636719 -69.363281 C 29.535156 -69.78125 29.222656 -71.652344 29.117188 -73.421875 C 28.910156 -75.707031 28.703125 -76.851562 28.285156 -77.269531 C 27.976562 -77.582031 27.351562 -77.789062 26.726562 -77.789062 C 26.101562 -77.789062 25.480469 -77.582031 25.0625 -77.164062 C 24.125 -75.917969 22.464844 -64.269531 21.734375 -53.660156 L 21.421875 -48.566406 L 19.863281 -46.695312 C 12.480469 -38.167969 3.640625 -24.957031 3.640625 -13.207031 C 3.640625 -9.984375 4.054688 -8.421875 5.40625 -6.96875 C 6.34375 -5.824219 7.800781 -5.304688 9.046875 -5.304688 C 10.191406 -5.304688 11.128906 -5.71875 11.648438 -6.550781 C 12.0625 -7.28125 12.0625 -7.488281 11.542969 -8.214844 C 11.230469 -8.734375 10.609375 -9.152344 10.085938 -9.359375 C 8.320312 -9.671875 8.214844 -9.878906 8.113281 -12.792969 C 7.800781 -19.34375 12.582031 -30.160156 19.550781 -39.101562 L 21.109375 -41.078125 L 20.902344 -30.367188 C 20.382812 -6.65625 20.695312 27.664062 21.632812 31.925781 C 21.734375 32.445312 22.046875 33.277344 22.464844 33.695312 Z M 27.039062 -21.734375 L 25.375 -20.800781 L 25.375 -22.046875 C 25.375 -22.773438 25.582031 -28.496094 25.789062 -34.839844 L 26.101562 -46.382812 L 27.039062 -47.316406 C 27.453125 -47.941406 29.328125 -49.5 31.09375 -50.957031 C 39.933594 -58.339844 49.085938 -63.019531 55.011719 -63.019531 C 57.300781 -63.019531 57.613281 -62.917969 58.445312 -62.085938 C 59.171875 -61.355469 59.277344 -61.046875 59.070312 -59.484375 C 58.132812 -49.605469 36.8125 -26.621094 27.039062 -21.734375 Z M 27.039062 -21.734375 "/></g></g></g></svg>